<svg xmlns="http://www.w3.org/2000/svg" xmlns:xlink="http://www.w3.org/1999/xlink" width="24" height="24" viewBox="0 0 24 24">
    <defs>
        <path id="a" d="M12 23C5.925 23 1 18.075 1 12S5.925 1 12 1s11 4.925 11 11-4.925 11-11 11zm0-2a9 9 0 1 0 0-18 9 9 0 0 0 0 18zM10.336 9.595a.917.917 0 0 1-.167-1.242.817.817 0 0 1 1.181-.175l3.695 2.922a.915.915 0 0 1 .04 1.383l-3.695 3.306a.815.815 0 0 1-1.189-.1.918.918 0 0 1 .096-1.25l2.892-2.588-2.853-2.256z"/>
    </defs>
    <g fill="none" fill-rule="evenodd">
        <mask id="b" fill="#fff">
            <use xlink:href="#a"/>
        </mask>
        <use fill="#fff" fill-rule="nonzero" xlink:href="#a"/>
        <g fill="#fff" mask="url(#b)">
            <path d="M0 0h24v24H0z"/>
        </g>
    </g>
</svg>
