<svg id="Livello_1" data-name="Livello 1" xmlns="http://www.w3.org/2000/svg" viewBox="0 0 441 139.58">
  <title>restart</title>
  <g>
    <path id="Path_6673" data-name="Path 6673" d="M52.21,172.83c-4.34,0-6.32-2.44-6.32-6.28v-6.91h4.65c5.48,0,8.4,1,8.35,6C58.84,170.54,56.2,172.83,52.21,172.83Zm17,11.15a8.88,8.88,0,0,0-3.89-4.6,16.64,16.64,0,0,0,9.11-14.94c0-12.56-9.11-16.72-22.73-16.72H37.9c-4.81,0-7.23,3.94-7.23,8v50.8H45.88v-22H50c2.3,0,3.71,1.15,4.69,3.36l5.06,11.61s2.94,7.05,10.1,7.05h9.25Zm56,1.77a3.31,3.31,0,0,1,3.47,3.13,4,4,0,0,1,0,.49c0,4.34-6.28,6.55-11,6.81.26-6.1,3.18-10.43,7.6-10.43m1.86,26.62c-5.4,0-8.4-3.28-8.76-7.26,8.67-.53,23.17-3.1,23.17-15.91,0-9.29-6.19-13.8-15.47-13.8-15.13,0-22.73,12.38-22.73,25.2,0,13.44,6.1,22.81,21.66,22.81a29.49,29.49,0,0,0,17-5L138,208.65a20.55,20.55,0,0,1-11,3.71M194,194c-3.62-1.15-6.1-2.3-6.1-4.87,0-2.12,1.59-3.18,4.07-3.18,2.74,0,6.37,1.59,10.26,4.6L209,182a26.43,26.43,0,0,0-17.78-6.64c-9.9,0-17.68,5.22-17.68,15,0,9.55,7,12.2,14,14.41,3.18,1,5.75,1.86,5.75,4.51,0,2.48-1.59,3.36-4.25,3.36-4,0-9.9-2.47-13.17-4.6L172,218.46c2.74,1.95,9.64,4.95,17.86,4.95,10.88,0,18-5.22,18-15.12,0-9.37-7.34-12.2-13.88-14.33m66.85,2.83c-3,0-5.31-1.23-5.31-6.1V172.83c11.8-3.15,11.06-11.58,11.06-11.58H255.56V147.54h-6.3c-5.88,0-8.65,4.15-8.65,9.85v33c0,8.85.62,17.6,15.65,17.6a24.9,24.9,0,0,0,12.56-3.27l-3.18-9.28a10.37,10.37,0,0,1-4.78,1.41m74.94-42.05a10,10,0,0,0,3.07-7.3h-18.2a6.76,6.76,0,0,0-5.94,4.56l-.32,1-17.3,53.27h11c2.81,0,3.74-.45,4.4-2.88.06-.22.76-3.08.87-3.3,1.89-6.89,15.18-10.13,19.62-6.73a1.21,1.21,0,0,1,.41.61l4,12.3h16.18Zm-17.95,29.37,6.32-21.93,0,0,.16-.56h.35l.1.34v0L330,180.12C322.29,180.12,318.81,183.21,317.85,184.12Zm77.3.42-.1-.55-.77-4.22-.28-1.5h-4.88c-4.37.34-5.93,4-5.93,7.91,0,.2-.08.53-.07.72v36.64H389s8.88,0,8.88-8.63v-19c.09-4.07,2.66-6.45,6.46-6.45a13.82,13.82,0,0,1,6.37,1.5l2.38-12.29a17.21,17.21,0,0,0-7.33-1.68c-3.8,0-8.23,2-10.62,7.6m68.58,12.25c-3,0-5.31-1.23-5.31-6.1V172.83c11.8-3.15,11.05-11.58,11.05-11.58H458.41V147.54h-6.29c-5.88,0-8.65,4.15-8.65,9.85v33c0,8.85.62,17.6,15.65,17.6a24.93,24.93,0,0,0,12.56-3.27l-3.19-9.28a10.29,10.29,0,0,1-4.77,1.41" transform="translate(-30.67 -147.45)" fill="#7aacce"/>
    <path id="Path_6674" data-name="Path 6674" d="M31.14,265.41h7.93c6.68,0,11.3,4.58,11.3,10.57V276c0,6-4.62,10.62-11.3,10.62H31.14Zm7.93,17.85c4.46,0,7.38-3,7.38-7.16V276a7,7,0,0,0-6.71-7.24c-.22,0-.45,0-.67,0H34.88v14.45Z" transform="translate(-30.67 -147.45)" fill="#fff"/>
    <path id="Path_6675" data-name="Path 6675" d="M71.82,265.41h9.47a8.57,8.57,0,0,1,6.14,2.12,6.47,6.47,0,0,1,1.76,4.59v.06c0,3.49-2.1,5.59-5.07,6.44l5.74,8.05h-4.4l-5.23-7.41H75.56v7.41H71.82ZM81,276c2.67,0,4.37-1.4,4.37-3.56v-.06c0-2.28-1.64-3.52-4.4-3.52H75.56V276Z" transform="translate(-30.67 -147.45)" fill="#fff"/>
    <path id="Path_6676" data-name="Path 6676" d="M116.2,278.28l-8.45-12.87h4.4l6,9.41,6-9.41h4.28L120,278.19v8.48h-3.77Z" transform="translate(-30.67 -147.45)" fill="#fff"/>
    <path id="Path_6677" data-name="Path 6677" d="M170.47,265.41h15.82v3.4H174.2v5.8h10.72V278H174.2v8.65h-3.73Z" transform="translate(-30.67 -147.45)" fill="#fff"/>
    <path id="Path_6678" data-name="Path 6678" d="M207.31,265.41h3.74v17.85h11.17v3.4H207.31Z" transform="translate(-30.67 -147.45)" fill="#fff"/>
    <path id="Path_6679" data-name="Path 6679" d="M240.88,276.1V276a11.12,11.12,0,0,1,22.23-.06V276a11.12,11.12,0,0,1-22.23.06Zm18.31,0V276a7.28,7.28,0,0,0-7-7.56H252a7.18,7.18,0,0,0-7.18,7.18c0,.11,0,.21,0,.32V276a7.28,7.28,0,0,0,7,7.55H252a7.19,7.19,0,0,0,7.17-7.19c0-.11,0-.21,0-.31Z" transform="translate(-30.67 -147.45)" fill="#fff"/>
    <path id="Path_6680" data-name="Path 6680" d="M290.79,265.26h3.46l9.35,21.4h-4l-2.15-5.13H287.44l-2.18,5.13h-3.83Zm5.34,13-3.67-8.5-3.65,8.5Z" transform="translate(-30.67 -147.45)" fill="#fff"/>
    <path id="Path_6681" data-name="Path 6681" d="M326.66,268.87h-6.74v-3.46h17.24v3.46h-6.74v17.79h-3.76Z" transform="translate(-30.67 -147.45)" fill="#fff"/>
    <path id="Path_6682" data-name="Path 6682" d="M378,283.57l2.25-2.68a9.79,9.79,0,0,0,6.71,2.77c2.31,0,3.77-1.07,3.77-2.68v-.06c0-1.51-.85-2.33-4.8-3.24-4.53-1.1-7.08-2.43-7.08-6.35v-.06c0-3.65,3-6.16,7.26-6.16a11.76,11.76,0,0,1,7.71,2.67l-2,2.82a9.67,9.67,0,0,0-5.77-2.19c-2.19,0-3.46,1.13-3.46,2.52V271c0,1.63,1,2.36,5,3.34,4.49,1.09,6.83,2.7,6.83,6.22v.06c0,4-3.13,6.35-7.59,6.35A13.15,13.15,0,0,1,378,283.57Z" transform="translate(-30.67 -147.45)" fill="#fff"/>
    <path id="Path_6683" data-name="Path 6683" d="M415.8,265.41h8.38c4.95,0,8.08,2.82,8.08,7.1v.07c0,4.76-3.83,7.25-8.5,7.25h-4.22v6.83H415.8Zm8.08,11c2.82,0,4.59-1.58,4.59-3.8v-.06c0-2.49-1.8-3.8-4.59-3.8h-4.34v7.66Z" transform="translate(-30.67 -147.45)" fill="#fff"/>
    <path id="Path_6684" data-name="Path 6684" d="M458.42,265.26h3.45l9.36,21.4h-4l-2.16-5.13H455.07l-2.18,5.13h-3.83Zm5.34,13-3.67-8.5-3.65,8.5Z" transform="translate(-30.67 -147.45)" fill="#fff"/>
  </g>
</svg>
