<svg id="Livello_1" data-name="Livello 1" xmlns="http://www.w3.org/2000/svg" viewBox="0 0 463.14 69.75">
  <title>trust-zerobody</title>
  <g>
    <path d="M230.75,180.19A4.9,4.9,0,0,0,234.2,179a4,4,0,0,0,1.3-3.17,3,3,0,0,0-1.15-2.55,4.7,4.7,0,0,0-3-.9,5.11,5.11,0,0,0-3.42,1.17,3.7,3.7,0,0,0-1.38,2.93,3.52,3.52,0,0,0,1,2.72A4.49,4.49,0,0,0,230.75,180.19Z" transform="translate(-14.36 -159.79)" fill="#fff"/>
    <path d="M477.12,196.36a1.15,1.15,0,0,0-1-.62,2.24,2.24,0,0,0-1.15.4q-3.65,2.4-7.5,5.3l1.3-8.05q1.31-7.35,1.3-8.6a1.11,1.11,0,0,0-.45-1,3.06,3.06,0,0,0-1.6-.3,4,4,0,0,0-2.48.65,3.94,3.94,0,0,0-1.22,2.15,60.36,60.36,0,0,1-2.48,7.5,22.13,22.13,0,0,1-2.4,4.55c-.75,1-1.37,1.5-1.87,1.5-.7,0-1.05-.63-1.05-1.9a20.3,20.3,0,0,1,.3-3.08c.2-1.25.43-2.55.7-3.92.2-1,.47-2.12.8-3.35a19.93,19.93,0,0,0,.55-2.7,1.26,1.26,0,0,0-.43-1,2.47,2.47,0,0,0-1.52-.35,5,5,0,0,0-2.85.65,4.15,4.15,0,0,0-1.4,2.15,39,39,0,0,0-2.11,11.51,27.77,27.77,0,0,1-2.49,2.54,4.27,4.27,0,0,1-2.75,1.2,2,2,0,0,1-1.73-1.25,10.87,10.87,0,0,1-.87-4.15,96.87,96.87,0,0,0,7.35-15.4,39,39,0,0,0,2.75-13.1q0-3.94-1.43-5.9a4.28,4.28,0,0,0-3.57-2q-4.35,0-7,6.87a63,63,0,0,0-3.62,16.58,13.65,13.65,0,0,0-6.68,2.57,15.18,15.18,0,0,0-4.67,5.6c-.08.15-.13.31-.2.47a27.2,27.2,0,0,1-4.2.66,11.27,11.27,0,0,0-2.72-6.48,7.8,7.8,0,0,0-6.13-2.62,10.11,10.11,0,0,0-5.65,1.67,11.46,11.46,0,0,0-4,4.65,13.21,13.21,0,0,0-.85,2.33,25.22,25.22,0,0,1-3.2.45,11.46,11.46,0,0,0-2.5-6.23,7.56,7.56,0,0,0-5.45-2.77,31.94,31.94,0,0,0,5.15-8.5,22.73,22.73,0,0,0,1.55-8.15,8.71,8.71,0,0,0-1.4-5.13,4.34,4.34,0,0,0-3.7-2q-4.25,0-7.32,5.32A43.93,43.93,0,0,0,380.5,178a68.86,68.86,0,0,0-1.6,14,26.37,26.37,0,0,1-3.7.55,11.27,11.27,0,0,0-2.72-6.48,7.8,7.8,0,0,0-6.13-2.62,10.11,10.11,0,0,0-5.65,1.67,11.46,11.46,0,0,0-4,4.65,14.19,14.19,0,0,0-1.22,4.06,2.72,2.72,0,0,1-1.18.32c-.83,0-1.25-.58-1.25-1.75a17.86,17.86,0,0,1,.4-2.5,25.29,25.29,0,0,0,.45-3.15q0-3.26-3.25-3.25a7.25,7.25,0,0,0-3.62,1.15,14.57,14.57,0,0,0-4,3.85,28.26,28.26,0,0,0-3.7,7,34.85,34.85,0,0,1,.5-3.7c.2-1,.47-2.17.8-3.5a19.16,19.16,0,0,0,.75-3.6,1,1,0,0,0-.4-.95,2.78,2.78,0,0,0-1.4-.25,5.19,5.19,0,0,0-2.87.67,3.74,3.74,0,0,0-1.48,2.13,40.34,40.34,0,0,0-1.83,11.34,17,17,0,0,1-3.79,2.83,11,11,0,0,1-5.13,1.58q-3.49,0-4.75-2.3,5.91-1.45,8.38-3.93a8.07,8.07,0,0,0,2.47-5.92,6,6,0,0,0-6.4-6.4,10.08,10.08,0,0,0-5.82,1.75,11.91,11.91,0,0,0-4,4.72,14.48,14.48,0,0,0-1.41,5.72,1.93,1.93,0,0,0-1,.66,12,12,0,0,1-3.92,3.12,11.64,11.64,0,0,1-5,1,14.39,14.39,0,0,1-2.82-.33c-1.09-.21-2.51-.55-4.28-1q-2.14-.56-5-1.2,1.8-2.29,6.25-8.75,5.55-8.1,10.95-16.9h.35a2.52,2.52,0,0,0,2-.75,2.94,2.94,0,0,0,.7-2.1,3.21,3.21,0,0,0-.5-1.88,3.45,3.45,0,0,0-2-1.12,48.07,48.07,0,0,0-7.72-1.45,74.44,74.44,0,0,0-8.08-.45q-8,0-12.8,2.8a9.32,9.32,0,0,0-4.85,8.65,8.93,8.93,0,0,0,.58,3.32,5.94,5.94,0,0,0,1.52,2.33,2.89,2.89,0,0,0,2.05.75,3.54,3.54,0,0,0,2.13-.68,2,2,0,0,0,.92-1.67,3.45,3.45,0,0,0-.45-1.3,13,13,0,0,1-.6-1.4,4.7,4.7,0,0,1-.2-1.45,4.39,4.39,0,0,1,2.68-4.18q2.67-1.32,8.42-1.32a50.74,50.74,0,0,1,8.75.75,208.3,208.3,0,0,1-17.7,25.75c-.46,0-1.16-.05-2.1-.05a11.43,11.43,0,0,0-4.3.75,6.78,6.78,0,0,0-2.87,2.05,4.48,4.48,0,0,0-1,2.85,4,4,0,0,0,1.65,3.32A7,7,0,0,0,279,207a8.24,8.24,0,0,0,3.9-1,16.23,16.23,0,0,0,4.15-3.47c1.4.47,3,1.08,4.8,1.85a55.14,55.14,0,0,0,5.35,1.95,17,17,0,0,0,4.8.65,13.7,13.7,0,0,0,6.33-1.35,18.54,18.54,0,0,0,5.39-4.66,9.2,9.2,0,0,0,2.08,3.16c1.94,1.9,4.65,2.85,8.15,2.85a14.47,14.47,0,0,0,7.23-1.9,22.88,22.88,0,0,0,2.57-1.69,9.46,9.46,0,0,0,.43,1.59,2.72,2.72,0,0,0,2.67,2,2.9,2.9,0,0,0,2.28-.83,7.85,7.85,0,0,0,1.27-3.17,35.92,35.92,0,0,1,1.95-5.8,23.58,23.58,0,0,1,2.43-4.43c.81-1.11,1.47-1.67,2-1.67s.55.27.55.8c0,.23,0,.68-.1,1.35a7.63,7.63,0,0,0-.15,1.5,4.88,4.88,0,0,0,1.38,3.65,5.49,5.49,0,0,0,4,1.35,8.12,8.12,0,0,0,3.12-.62,12.05,12.05,0,0,0,.83,2.57,9.19,9.19,0,0,0,3.23,3.85A8.82,8.82,0,0,0,364.7,207a9.2,9.2,0,0,0,6.35-2.53,12.41,12.41,0,0,0,3.75-6.72,24.89,24.89,0,0,0,4.45-.6,16.48,16.48,0,0,0,1.95,6q2.3,3.85,7.35,3.85a8.88,8.88,0,0,0,6.13-2.55,13,13,0,0,0,3.77-6.7,26.64,26.64,0,0,0,3.05-.32,12.07,12.07,0,0,0,1.05,4.27,9.19,9.19,0,0,0,3.23,3.85A8.82,8.82,0,0,0,410.9,207a9.2,9.2,0,0,0,6.35-2.53,12.41,12.41,0,0,0,3.75-6.72,24.42,24.42,0,0,0,3.17-.34c0,.46-.07.92-.07,1.39a8.73,8.73,0,0,0,2,5.92,6.37,6.37,0,0,0,5,2.28,7.26,7.26,0,0,0,3.67-.9,14.31,14.31,0,0,0,3.68-3.55c1.33,3,3.27,4.45,5.8,4.45a8.22,8.22,0,0,0,4.85-1.78,22.43,22.43,0,0,0,2.09-1.72,7.31,7.31,0,0,0,.73,1.42A4.3,4.3,0,0,0,455.6,207a5.28,5.28,0,0,0,3.8-1.88,12.72,12.72,0,0,0,2.8-5.47q-.45,3.45-.8,5.3l-.15,1.15a66.41,66.41,0,0,0-8.28,7.27,21.76,21.76,0,0,0-4,5.63,12,12,0,0,0-1.07,4.8,5.51,5.51,0,0,0,1.6,4.12,5.67,5.67,0,0,0,4.15,1.58q4.75,0,7.82-5.93t5-16.27l9.6-6.45a3.24,3.24,0,0,0,1.1-1.15,3.86,3.86,0,0,0,.35-1.8A3.05,3.05,0,0,0,477.12,196.36Zm-33.4-19.47a62.18,62.18,0,0,1,1.63-8.83c.63-2.25,1.27-3.37,1.9-3.37.3,0,.56.35.77,1.05a10.27,10.27,0,0,1,.33,2.95q0,7.4-5.6,19.6Q443.05,182.33,443.72,176.89ZM318.9,195.74a10,10,0,0,1,1.28-5.2,3.67,3.67,0,0,1,3.12-2.15,1.85,1.85,0,0,1,1.43.57,2.2,2.2,0,0,1,.52,1.53,4.11,4.11,0,0,1-1.7,3.25,11.41,11.41,0,0,1-4.65,2.1Zm49,4.7a3.63,3.63,0,0,1-2.78,1.3,3.07,3.07,0,0,1-2.52-1.45,7,7,0,0,1-1.08-4.2,9.48,9.48,0,0,1,1.33-5.43,3.92,3.92,0,0,1,3.32-1.92h.25a8.66,8.66,0,0,0-.15,1.6,8.12,8.12,0,0,0,.83,3.6,6.94,6.94,0,0,0,2.37,2.75A7.29,7.29,0,0,1,367.88,200.44ZM387,175.79a47.73,47.73,0,0,1,2.18-8.08c.78-2,1.5-3,2.17-3,.43,0,.78.28,1,.85a6.3,6.3,0,0,1,.37,2.45,21.41,21.41,0,0,1-2,8.22q-2,4.63-5.28,10.68A100.15,100.15,0,0,1,387,175.79Zm4.5,24.65a3.65,3.65,0,0,1-2.75,1.3,3.06,3.06,0,0,1-2.52-1.5,7.39,7.39,0,0,1-1.08-4.35,9.5,9.5,0,0,1,1.38-5.43,4,4,0,0,1,3.42-2h.15a12.63,12.63,0,0,0-.2,1.9,8.12,8.12,0,0,0,.83,3.6,6.94,6.94,0,0,0,2.37,2.75A7.14,7.14,0,0,1,391.5,200.44Zm22.58,0a3.63,3.63,0,0,1-2.78,1.3,3.07,3.07,0,0,1-2.52-1.45,7,7,0,0,1-1.08-4.2,9.48,9.48,0,0,1,1.33-5.43,3.92,3.92,0,0,1,3.32-1.92h.25a8.66,8.66,0,0,0-.15,1.6,8.12,8.12,0,0,0,.83,3.6,6.94,6.94,0,0,0,2.37,2.75A7.29,7.29,0,0,1,414.08,200.44Zm20.67.77a3,3,0,0,1-1.9.78q-2.5,0-2.5-3.65a11.4,11.4,0,0,1,1.82-6.28,8.43,8.43,0,0,1,4.58-3.67c-.07,1.8-.1,3.1-.1,3.9a33.71,33.71,0,0,0,.5,6.05A14.62,14.62,0,0,1,434.75,201.21ZM457,221.79c-1,1.93-2,2.9-2.8,2.9a1.17,1.17,0,0,1-1.08-.55,2.81,2.81,0,0,1-.32-1.4,9,9,0,0,1,1.72-4.68,28.32,28.32,0,0,1,5.58-5.92A42.47,42.47,0,0,1,457,221.79Z" transform="translate(-14.36 -159.79)" fill="#fff"/>
    <path d="M264,195.64a1.74,1.74,0,0,0-1.35.7,38.87,38.87,0,0,1-3.67,4,3.91,3.91,0,0,1-2.38,1.23c-1,0-1.45-.67-1.45-2a35.13,35.13,0,0,1,1-5.75,39.54,39.54,0,0,0,1.1-7q0-3.26-3.25-3.25a7.28,7.28,0,0,0-3.62,1.15,14.57,14.57,0,0,0-4,3.85,28.59,28.59,0,0,0-3.7,7c.14-1.47.3-2.7.5-3.7s.47-2.17.8-3.5a19.16,19.16,0,0,0,.75-3.6,1,1,0,0,0-.4-.95,2.75,2.75,0,0,0-1.4-.25,5.19,5.19,0,0,0-2.87.67,3.78,3.78,0,0,0-1.48,2.13,40.63,40.63,0,0,0-1.83,11.44,34.49,34.49,0,0,1-2.42,2.56,3.78,3.78,0,0,1-2.25,1.25,1.4,1.4,0,0,1-1.35-.8,5.36,5.36,0,0,1-.4-2.3,43.29,43.29,0,0,1,1.2-7.45,38.27,38.27,0,0,0,.95-5.8c0-1.13-.85-1.7-2.55-1.7a3.84,3.84,0,0,0-2.4.6,4.22,4.22,0,0,0-1.2,2.2,53.1,53.1,0,0,0-1.47,6.57,37.92,37.92,0,0,0-.58,5.78,11.19,11.19,0,0,0,1.48,6.1,5.2,5.2,0,0,0,4.72,2.3c2.11,0,4.33-1.1,6.67-3.27a8.14,8.14,0,0,0,.36,1.27,2.74,2.74,0,0,0,2.67,2,2.88,2.88,0,0,0,2.28-.83A7.71,7.71,0,0,0,243.6,203a34.14,34.14,0,0,1,2-5.8,27.72,27.72,0,0,1,2.4-4.43c.78-1.11,1.39-1.67,1.82-1.67s.55.27.55.8a25.17,25.17,0,0,1-.65,4.35,32.08,32.08,0,0,0-.7,5,6.28,6.28,0,0,0,1.3,4.27,4.85,4.85,0,0,0,3.85,1.48,9.74,9.74,0,0,0,5.63-1.7A21.85,21.85,0,0,0,264.4,201a4.56,4.56,0,0,0,1-3.1,3.1,3.1,0,0,0-.37-1.65A1.16,1.16,0,0,0,264,195.64Z" transform="translate(-14.36 -159.79)" fill="#fff"/>
    <path d="M213.6,195.64a1.74,1.74,0,0,0-1.35.7,30.78,30.78,0,0,1-3.9,3.9,5.94,5.94,0,0,1-3.8,1.3,4.16,4.16,0,0,1-3.87-2.1q-1.23-2.1-1.23-7.3c0-.93,0-2.23.1-3.9h6.1q5.65,0,5.65-3.45a1.81,1.81,0,0,0-.35-1.3,1.58,1.58,0,0,0-1.15-.35h-5.6q6.51-5.74,6.5-13.5a8.37,8.37,0,0,0-1.2-4.65,3.75,3.75,0,0,0-3.3-1.85,7.19,7.19,0,0,0-5.32,2.7,22.78,22.78,0,0,0-4.23,7.25,49.19,49.19,0,0,0-2.6,10H191.2c-1.5,0-2.25.93-2.25,2.8a2.47,2.47,0,0,0,.53,1.75,2.77,2.77,0,0,0,2,.55h1.95c-.1,1.5-.15,3-.15,4.45,0,1.08,0,2.09.14,3.05a1.94,1.94,0,0,0-.83.6c-2.2,2.73-4.12,4.42-5.75,5,.06-.6.1-1.07.1-1.4a6.53,6.53,0,0,0-.83-3.23,32.88,32.88,0,0,0-2.42-3.57,18.13,18.13,0,0,1-1.63-2.25,3.32,3.32,0,0,1-.52-1.65,7.14,7.14,0,0,1,.9-3,8,8,0,0,0,.55-1.3,3.8,3.8,0,0,0,.2-.95.84.84,0,0,0-.55-.8,5.2,5.2,0,0,0-1.95-.25q-3,0-4,2.2c-.74,1.73-1.49,3.41-2.25,5s-1.44,2.91-2,3.88a64.25,64.25,0,0,1-3.86,5.23c-.39.4-.75.76-1.07,1a3.92,3.92,0,0,1-2.37,1.23,1.25,1.25,0,0,1-1.05-.53,2.36,2.36,0,0,1-.4-1.47,54.48,54.48,0,0,1,1.4-7.9,49,49,0,0,0,1.25-6.85,1.12,1.12,0,0,0-.45-1,3.37,3.37,0,0,0-1.6-.27,4,4,0,0,0-2.48.65,3.88,3.88,0,0,0-1.22,2.15,60.36,60.36,0,0,1-2.48,7.5,22.13,22.13,0,0,1-2.4,4.55c-.75,1-1.37,1.5-1.87,1.5a.84.84,0,0,1-.8-.43,3,3,0,0,1-.25-1.47,46.77,46.77,0,0,1,1-7c.2-1,.46-2.12.8-3.35a21.86,21.86,0,0,0,.55-2.7,1.29,1.29,0,0,0-.43-1,2.47,2.47,0,0,0-1.52-.35,5,5,0,0,0-2.85.65,4.15,4.15,0,0,0-1.4,2.15,42.34,42.34,0,0,0-1.65,6.62c0,.1,0,.2,0,.29a3.92,3.92,0,0,1-2.16.94c-.84,0-1.25-.58-1.25-1.75a17.86,17.86,0,0,1,.4-2.5,25.29,25.29,0,0,0,.45-3.15c0-2.17-1.09-3.25-3.25-3.25a7.31,7.31,0,0,0-3.63,1.15,14.41,14.41,0,0,0-4,3.85,28.26,28.26,0,0,0-3.7,7,34.85,34.85,0,0,1,.5-3.7c.2-1,.46-2.17.8-3.5a19.16,19.16,0,0,0,.75-3.6,1,1,0,0,0-.4-.95,2.81,2.81,0,0,0-1.4-.25,5.2,5.2,0,0,0-2.88.67,3.77,3.77,0,0,0-1.47,2.13,40.5,40.5,0,0,0-1.84,11.37,25.58,25.58,0,0,1-2.71,2.58,6,6,0,0,1-3.8,1.3,4.17,4.17,0,0,1-3.88-2.1q-1.22-2.1-1.22-7.3c0-.93,0-2.23.1-3.9h6.1c3.76,0,5.65-1.15,5.65-3.45a1.86,1.86,0,0,0-.35-1.3,1.61,1.61,0,0,0-1.15-.35h-5.6q6.49-5.74,6.5-13.5a8.37,8.37,0,0,0-1.2-4.65,3.75,3.75,0,0,0-3.3-1.85,7.21,7.21,0,0,0-5.33,2.7,22.58,22.58,0,0,0-4.22,7.25,47.93,47.93,0,0,0-2.6,10h-2.85c-1.5,0-2.25.93-2.25,2.8a2.47,2.47,0,0,0,.52,1.75,2.8,2.8,0,0,0,2,.55h2c-.1,1.5-.15,3-.15,4.45q0,14.35,10.2,14.35a10.33,10.33,0,0,0,5.85-1.7,21.28,21.28,0,0,0,2.1-1.64A7.77,7.77,0,0,0,125,205a2.74,2.74,0,0,0,2.68,2,2.87,2.87,0,0,0,2.27-.83,7.83,7.83,0,0,0,1.28-3.17,35.92,35.92,0,0,1,1.95-5.8,23.6,23.6,0,0,1,2.42-4.43c.82-1.11,1.48-1.67,2-1.67s.55.27.55.8c0,.23,0,.68-.1,1.35a7.63,7.63,0,0,0-.15,1.5,4.87,4.87,0,0,0,1.37,3.65,5.53,5.53,0,0,0,4,1.35,8.12,8.12,0,0,0,3.61-.86c0,.29,0,.57,0,.86a8.9,8.9,0,0,0,1.42,5.17A4.3,4.3,0,0,0,152,207a5,5,0,0,0,3.65-1.83,11.7,11.7,0,0,0,2.55-5.22,10,10,0,0,0,1.12,5.2,3.84,3.84,0,0,0,3.53,1.85,9.71,9.71,0,0,0,5.62-1.7,22.14,22.14,0,0,0,4.63-4.35,3.26,3.26,0,0,0,.43-.66c.18-.22.37-.42.54-.64a32.76,32.76,0,0,0,3.08-4.9c.46.53,1,1.16,1.5,1.87a12.44,12.44,0,0,1,1.32,2.23,6.57,6.57,0,0,1,.58,2.45c-.3,0-.75-.09-1.33-.18a11.35,11.35,0,0,0-1.52-.12,3.79,3.79,0,0,0-2.8,1,3,3,0,0,0-1,2.25,3.51,3.51,0,0,0,1.37,2.7,5.88,5.88,0,0,0,4,1.2,7.13,7.13,0,0,0,4.75-1.7,13.6,13.6,0,0,0,5.62-1.23,15.19,15.19,0,0,0,4.78-4.22c0-.05.06-.11.1-.17q2.3,6.21,9,6.22a10.33,10.33,0,0,0,5.85-1.7,21,21,0,0,0,4.7-4.35,4.56,4.56,0,0,0,.95-3.1,3.1,3.1,0,0,0-.37-1.65A1.16,1.16,0,0,0,213.6,195.64ZM201.43,175a26.61,26.61,0,0,1,1.75-5.2c.62-1.25,1.17-1.87,1.67-1.87.74,0,1.1,1,1.1,2.95a13.89,13.89,0,0,1-1.47,5.77,17,17,0,0,1-4.43,5.73A70.78,70.78,0,0,1,201.43,175Zm-86.85,0a27.3,27.3,0,0,1,1.75-5.2c.62-1.25,1.18-1.87,1.68-1.87.73,0,1.1,1,1.1,2.95a13.76,13.76,0,0,1-1.48,5.77,17.09,17.09,0,0,1-4.42,5.73A68.36,68.36,0,0,1,114.58,175Z" transform="translate(-14.36 -159.79)" fill="#fff"/>
    <path d="M93.86,195.64a1.74,1.74,0,0,0-1.35.7,16.89,16.89,0,0,1-5,4.12A10.91,10.91,0,0,1,82.41,202q-3.51,0-4.75-2.3,5.9-1.45,8.37-3.93a8.08,8.08,0,0,0,2.48-5.92,6,6,0,0,0-6.4-6.4,10.11,10.11,0,0,0-5.83,1.75c-.17.12-.32.26-.49.38a2.48,2.48,0,0,0-1.58-.43,35,35,0,0,1-6-.45,37.94,37.94,0,0,0,2.45-12.55,9.68,9.68,0,0,0-1.88-6.3,6.21,6.21,0,0,0-5.07-2.3A8.64,8.64,0,0,0,59,164.94,9.13,9.13,0,0,0,55.63,169a16.4,16.4,0,0,0-1.22,6.68,15,15,0,0,0,1.55,7,12.35,12.35,0,0,0,4.6,4.93,41.6,41.6,0,0,1-5.4,9q-3,3.63-5.35,3.63a3.48,3.48,0,0,1-3.13-1.73,12.35,12.35,0,0,1-1.45-5,82.44,82.44,0,0,1-.37-8.85,95.44,95.44,0,0,1,1.4-16.3,6.6,6.6,0,0,0,.1-1.25,2.63,2.63,0,0,0-.73-2,3.24,3.24,0,0,0-2.27-.67,4.53,4.53,0,0,0-2.93.87A5.15,5.15,0,0,0,39,168.44a114.24,114.24,0,0,1-4.15,17.22,47.7,47.7,0,0,1-4.93,10.9q-2.47,3.67-4.22,3.68c-1.3,0-2.34-1.22-3.1-3.65a36,36,0,0,1-1.15-10.35,123.47,123.47,0,0,1,1.5-17.45c.06-.67.1-1.12.1-1.35a2.91,2.91,0,0,0-.83-2.4,3.68,3.68,0,0,0-2.32-.65,3.88,3.88,0,0,0-2.93,1,6.43,6.43,0,0,0-1.27,3.48A110.75,110.75,0,0,0,14.36,185q0,10.09,2.45,16.07t7.25,6q4.25,0,8-4.25t6.78-12.95q.3,7.84,2.5,12.52T48,207q4.8,0,9.72-4.93a43.25,43.25,0,0,0,8.43-12.37,32.1,32.1,0,0,0,6,.59,14.4,14.4,0,0,0-1.3,6.06,10.41,10.41,0,0,0,2.9,7.8q2.9,2.85,8.15,2.85a14.46,14.46,0,0,0,7.22-1.9A18.45,18.45,0,0,0,94.31,201a4.61,4.61,0,0,0,1-3.1,3.1,3.1,0,0,0-.38-1.65A1.15,1.15,0,0,0,93.86,195.64Zm-31.25-13c-2.1-1.57-3.15-4-3.15-7.25a9.56,9.56,0,0,1,.85-4.48,2.49,2.49,0,0,1,2.2-1.57,1.67,1.67,0,0,1,1.5,1,6.63,6.63,0,0,1,.55,3.08A29.42,29.42,0,0,1,62.61,182.59Zm14.25,13.15a10,10,0,0,1,1.27-5.2,3.67,3.67,0,0,1,3.13-2.15,1.83,1.83,0,0,1,1.42.57,2.21,2.21,0,0,1,.53,1.53,4.14,4.14,0,0,1-1.7,3.25,11.53,11.53,0,0,1-4.65,2.1Z" transform="translate(-14.36 -159.79)" fill="#fff"/>
  </g>
</svg>
